<svg version="1.1" id="Layer_1" xmlns="http://www.w3.org/2000/svg" xmlns:xlink="http://www.w3.org/1999/xlink" x="0px" y="0px"
	 width="100%" viewBox="0 0 632 358" enable-background="new 0 0 632 358" xml:space="preserve">
<path fill="#000000" opacity="1.000000" stroke="none" 
	d="
M1.000001,171.000000 
	C1.000000,114.358795 1.000000,57.717587 1.000000,1.038190 
	C211.546539,1.038190 422.093109,1.038190 633.000000,1.038190 
	C633.000000,57.020920 633.000000,113.042610 632.775696,169.874802 
	C628.232910,167.763321 624.036133,164.639099 619.575623,161.953049 
	C595.437866,147.417938 571.211914,133.029358 547.060425,118.516930 
	C520.816101,102.746880 494.625153,86.888008 468.401276,71.083862 
	C449.298706,59.571461 430.200745,48.051193 411.059448,36.603382 
	C403.237091,31.925060 395.416138,27.222979 387.385651,22.921646 
	C382.002045,20.038044 375.768524,21.616470 372.561829,25.963413 
	C368.780487,31.089296 368.995667,38.128674 373.170898,42.649300 
	C381.812683,52.005863 390.420074,61.396072 399.183136,70.638260 
	C413.675598,85.923088 428.247803,101.132721 442.847687,116.315086 
	C453.899933,127.808281 465.072418,139.185776 476.142914,150.661545 
	C482.008850,156.742203 487.825500,162.872513 493.562775,169.074432 
	C497.834198,173.691833 498.347290,180.765381 494.717102,184.765396 
	C490.045990,189.912384 485.264801,194.960602 480.483307,200.006149 
	C467.825684,213.362793 455.142120,226.694885 442.469269,240.037109 
	C429.893433,253.277176 417.360748,266.558594 404.729248,279.745331 
	C394.281281,290.652527 383.711823,301.443237 373.206543,312.295624 
	C369.114532,316.522797 368.829895,323.941711 372.532471,329.008575 
	C375.812195,333.496918 382.239258,335.154968 387.312622,332.170959 
	C400.514771,324.405914 413.483490,316.244690 426.663055,308.440338 
	C445.404663,297.342438 464.323792,286.543701 483.035431,275.396149 
	C507.520142,260.809265 531.869446,245.995209 556.290039,231.300629 
	C577.079224,218.791168 597.892883,206.322433 618.681885,193.812653 
	C623.483582,190.923233 628.228821,187.940033 633.000000,185.000000 
	C633.000000,242.974213 633.000000,300.948425 633.000000,358.961304 
	C422.452789,358.961304 211.905594,358.961304 1.000000,358.961304 
	C1.000000,301.312408 1.000000,243.624054 1.221840,185.125671 
	C12.008935,191.076126 22.450638,198.039856 33.165867,204.553604 
	C53.761112,217.073364 74.525978,229.313782 95.193474,241.715103 
	C119.493332,256.296021 143.757385,270.936584 168.050385,285.528900 
	C186.339828,296.514984 204.609055,307.535828 222.969971,318.401398 
	C231.500076,323.449310 240.091370,328.431610 248.922348,332.917084 
	C253.214828,335.097351 259.053040,332.649353 261.727081,328.635925 
	C264.829590,323.979431 264.965698,316.952271 261.877899,313.418365 
	C258.619568,309.689270 255.300095,306.008423 251.888947,302.418976 
	C238.065445,287.872864 224.221085,273.346436 210.337799,258.857391 
	C193.803802,241.601974 177.214081,224.399979 160.664719,207.159271 
	C153.659576,199.861481 146.664093,192.553848 139.726044,185.192429 
	C136.026077,181.266678 135.931442,173.831253 139.598373,169.928101 
	C151.284576,157.489120 162.981918,145.059387 174.794495,132.740707 
	C186.407974,120.629662 198.171387,108.662430 209.850327,96.613998 
	C210.389206,96.058083 210.744980,95.324707 211.407730,94.346855 
	C201.584595,84.161339 191.933243,74.058861 182.098190,64.138496 
	C181.320709,63.354263 178.919739,63.222862 177.862564,63.824158 
	C169.503082,68.578934 161.270676,73.558678 153.029343,78.519333 
	C126.907616,94.242630 100.804588,109.997002 74.683510,125.721375 
	C53.873375,138.248672 33.025185,150.712952 12.248222,163.294922 
	C8.366856,165.645386 4.742804,168.420746 1.000001,171.000000 
M204.365219,52.206448 
	C212.692184,60.034031 221.019165,67.861618 227.067368,73.547104 
	C236.701904,65.136833 247.234818,56.258167 257.341583,46.918362 
	C260.199585,44.277264 262.859131,40.540123 263.744965,36.857166 
	C265.005585,31.615906 263.444153,26.731636 258.111847,23.374220 
	C252.812408,20.037514 248.226288,21.438515 243.661819,24.158903 
	C230.519455,31.991674 217.546616,40.111233 204.337952,47.828449 
	C201.687485,49.376987 202.393784,50.219921 204.365219,52.206448 
z"/>
<path fill="#2D88E2" opacity="1.000000" stroke="none" 
	d="
M633.000000,184.533875 
	C628.228821,187.940033 623.483582,190.923233 618.681885,193.812653 
	C597.892883,206.322433 577.079224,218.791168 556.290039,231.300629 
	C531.869446,245.995209 507.520142,260.809265 483.035431,275.396149 
	C464.323792,286.543701 445.404663,297.342438 426.663055,308.440338 
	C413.483490,316.244690 400.514771,324.405914 387.312622,332.170959 
	C382.239258,335.154968 375.812195,333.496918 372.532471,329.008575 
	C368.829895,323.941711 369.114532,316.522797 373.206543,312.295624 
	C383.711823,301.443237 394.281281,290.652527 404.729248,279.745331 
	C417.360748,266.558594 429.893433,253.277176 442.469269,240.037109 
	C455.142120,226.694885 467.825684,213.362793 480.483307,200.006149 
	C485.264801,194.960602 490.045990,189.912384 494.717102,184.765396 
	C498.347290,180.765381 497.834198,173.691833 493.562775,169.074432 
	C487.825500,162.872513 482.008850,156.742203 476.142914,150.661545 
	C465.072418,139.185776 453.899933,127.808281 442.847687,116.315086 
	C428.247803,101.132721 413.675598,85.923088 399.183136,70.638260 
	C390.420074,61.396072 381.812683,52.005863 373.170898,42.649300 
	C368.995667,38.128674 368.780487,31.089296 372.561829,25.963413 
	C375.768524,21.616470 382.002045,20.038044 387.385651,22.921646 
	C395.416138,27.222979 403.237091,31.925060 411.059448,36.603382 
	C430.200745,48.051193 449.298706,59.571461 468.401276,71.083862 
	C494.625153,86.888008 520.816101,102.746880 547.060425,118.516930 
	C571.211914,133.029358 595.437866,147.417938 619.575623,161.953049 
	C624.036133,164.639099 628.232910,167.763321 632.775696,170.342651 
	C633.000000,174.689255 633.000000,179.378510 633.000000,184.533875 
z"/>
<path fill="#2D88E2" opacity="1.000000" stroke="none" 
	d="
M1.000001,171.464645 
	C4.742804,168.420746 8.366856,165.645386 12.248222,163.294922 
	C33.025185,150.712952 53.873375,138.248672 74.683510,125.721375 
	C100.804588,109.997002 126.907616,94.242630 153.029343,78.519333 
	C161.270676,73.558678 169.503082,68.578934 177.862564,63.824158 
	C178.919739,63.222862 181.320709,63.354263 182.098190,64.138496 
	C191.933243,74.058861 201.584595,84.161339 211.407730,94.346855 
	C210.744980,95.324707 210.389206,96.058083 209.850327,96.613998 
	C198.171387,108.662430 186.407974,120.629662 174.794495,132.740707 
	C162.981918,145.059387 151.284576,157.489120 139.598373,169.928101 
	C135.931442,173.831253 136.026077,181.266678 139.726044,185.192429 
	C146.664093,192.553848 153.659576,199.861481 160.664719,207.159271 
	C177.214081,224.399979 193.803802,241.601974 210.337799,258.857391 
	C224.221085,273.346436 238.065445,287.872864 251.888947,302.418976 
	C255.300095,306.008423 258.619568,309.689270 261.877899,313.418365 
	C264.965698,316.952271 264.829590,323.979431 261.727081,328.635925 
	C259.053040,332.649353 253.214828,335.097351 248.922348,332.917084 
	C240.091370,328.431610 231.500076,323.449310 222.969971,318.401398 
	C204.609055,307.535828 186.339828,296.514984 168.050385,285.528900 
	C143.757385,270.936584 119.493332,256.296021 95.193474,241.715103 
	C74.525978,229.313782 53.761112,217.073364 33.165867,204.553604 
	C22.450638,198.039856 12.008935,191.076126 1.221840,184.657837 
	C1.000000,180.643097 1.000000,176.286194 1.000001,171.464645 
z"/>
<path fill="#2D88E1" opacity="1.000000" stroke="none" 
	d="
M204.116486,51.958992 
	C202.393784,50.219921 201.687485,49.376987 204.337952,47.828449 
	C217.546616,40.111233 230.519455,31.991674 243.661819,24.158903 
	C248.226288,21.438515 252.812408,20.037514 258.111847,23.374220 
	C263.444153,26.731636 265.005585,31.615906 263.744965,36.857166 
	C262.859131,40.540123 260.199585,44.277264 257.341583,46.918362 
	C247.234818,56.258167 236.701904,65.136833 227.067368,73.547104 
	C221.019165,67.861618 212.692184,60.034031 204.116486,51.958992 
z"/>
</svg>