<svg width="412" height="231" viewBox="0 0 412 231" fill="none" xmlns="http://www.w3.org/2000/svg">
<rect width="13.8715" height="287.285" rx="6.93573" transform="matrix(-0.738176 0.674608 0.697065 0.717008 128.211 0.724609)" fill="black"/>
<path d="M-5.88006e-07 113.112C3.33784 110.666 6.65754 108.523 10.0167 106.448C24.5604 97.4639 39.1213 88.509 53.665 79.5249C70.7493 68.9714 87.7836 58.3322 104.913 47.856C118.003 39.85 131.239 32.0945 144.35 24.1241C153.57 18.5191 162.643 12.6578 171.879 7.08108C175.428 4.938 179.924 6.1288 182.219 9.35227C184.809 12.9912 184.61 18.3194 181.747 21.3553C174.398 29.1493 167.004 36.8991 159.694 44.7325C150.858 54.2031 142.09 63.7416 133.292 73.2505C124.426 82.8327 115.553 92.4076 106.698 102C103.353 105.624 100.008 109.249 96.7404 112.946C94.2008 115.819 94.5597 120.899 97.548 124.215C101.562 128.669 105.631 133.072 109.735 137.439C117.479 145.681 125.295 153.852 133.027 162.106C143.241 173.01 153.436 183.933 163.574 194.911C169.705 201.548 175.726 208.292 181.772 215.012C184.693 218.259 184.844 223.314 182.198 226.996C179.955 230.117 175.594 231.251 171.828 229.18C166.21 226.091 160.738 222.714 155.266 219.354C141.875 211.132 128.514 202.859 115.151 194.591C96.8047 183.24 78.482 171.851 60.1219 160.525C43.2259 150.102 26.2779 139.768 9.39148 129.329C6.27098 127.4 3.33498 125.157 0.156919 123.304C-4.52487e-07 120.182 -5.88006e-07 116.815 -5.88006e-07 113.112Z" fill="white"/>
<path d="M411.078 123.117C407.74 125.563 404.421 127.706 401.061 129.781C386.518 138.765 371.957 147.72 357.413 156.704C340.329 167.258 323.295 177.897 306.165 188.373C293.075 196.379 279.84 204.135 266.728 212.105C257.508 217.71 248.435 223.571 239.199 229.148C235.65 231.291 231.154 230.1 228.859 226.877C226.269 223.238 226.468 217.91 229.331 214.874C236.68 207.08 244.074 199.33 251.384 191.497C260.22 182.026 268.988 172.488 277.786 162.979C286.652 153.397 295.525 143.822 304.38 134.229C307.725 130.605 311.07 126.98 314.338 123.283C316.877 120.411 316.518 115.33 313.53 112.014C309.516 107.56 305.447 103.157 301.344 98.7903C293.599 90.5486 285.783 82.3774 278.051 74.1231C267.837 63.2193 257.642 52.296 247.504 41.3186C241.373 34.681 235.352 27.937 229.306 21.2173C226.385 17.9706 226.235 12.915 228.88 9.23369C231.123 6.11177 235.484 4.97816 239.25 7.04913C244.868 10.1383 250.34 13.5153 255.812 16.8752C269.203 25.0969 282.564 33.3706 295.928 41.6386C314.273 52.989 332.596 64.3786 350.956 75.7045C367.852 86.1271 384.8 96.4608 401.687 106.9C404.807 108.829 407.743 111.073 410.921 112.925C411.078 116.047 411.078 119.414 411.078 123.117Z" fill="white"/>
</svg>
